<mxfile host="app.diagrams.net" modified="2023-06-08T06:37:01.803Z" agent="Mozilla/5.0 (Macintosh; Intel Mac OS X 10_15_7) AppleWebKit/537.36 (KHTML, like Gecko) Chrome/114.0.0.0 Safari/537.36" version="21.3.5" etag="BMAucjfNAO-dXSDmrm65" type="github">
  <diagram name="Page-1" id="YbDrs1n8JDQMAcy2nE-J">
    <mxGraphModel>
      <root>
        <mxCell id="0" />
        <mxCell id="1" parent="0" />
      </root>
    </mxGraphModel>
  </diagram>
</mxfile>
